<svg xmlns="http://www.w3.org/2000/svg" version="1.1" xmlns:xlink="http://www.w3.org/1999/xlink" viewBox="0 0 200 200" width="200" height="200"><metadata><rdf:RDF xmlns:rdf="http://www.w3.org/1999/02/22-rdf-syntax-ns#" xmlns:dc="http://purl.org/dc/elements/1.1/"><rdf:Description><dc:creator>RealFaviconGenerator</dc:creator><dc:source>https://realfavicongenerator.net</dc:source></rdf:Description></rdf:RDF></metadata><rect width="200" height="200" fill="url('#gradient')"></rect><defs><linearGradient id="gradient" gradientTransform="rotate(45 0.5 0.5)"><stop offset="0%" stop-color="#2b4c78"></stop><stop offset="100%" stop-color="#5e4091"></stop></linearGradient></defs><g><g fill="#f8fafc" transform="matrix(7.82084142394822,0,0,7.82084142394822,39.58439290170145,157.44771489276084)" stroke="#f8fafc" stroke-width="0.4"><path d="M5.39-2.34L5.39-2.34Q6.08-2.34 6.46-2.72Q6.85-3.10 6.84-3.77L6.84-3.77L9.92-3.77Q9.92-2.03 8.68-0.92Q7.43 0.20 5.47 0.20L5.47 0.20Q3.16 0.20 1.84-1.25Q0.51-2.70 0.51-5.25L0.51-5.25L0.51-5.39Q0.51-6.99 1.10-8.22Q1.69-9.44 2.80-10.10Q3.92-10.76 5.44-10.76L5.44-10.76Q7.50-10.76 8.71-9.62Q9.92-8.48 9.92-6.52L9.92-6.52L6.84-6.52Q6.84-7.34 6.44-7.78Q6.04-8.22 5.36-8.22L5.36-8.22Q4.08-8.22 3.87-6.59L3.87-6.59Q3.80-6.07 3.80-5.17L3.80-5.17Q3.80-3.57 4.18-2.96Q4.56-2.34 5.39-2.34ZM14.79-10.57L14.79 0L11.48 0L11.48-10.57L14.79-10.57ZM11.29-13.29L11.29-13.29Q11.29-13.99 11.80-14.44Q12.30-14.89 13.12-14.89Q13.93-14.89 14.43-14.44Q14.94-13.99 14.94-13.29Q14.94-12.59 14.43-12.14Q13.93-11.69 13.12-11.69Q12.30-11.69 11.80-12.14Q11.29-12.59 11.29-13.29Z"></path></g></g></svg>